<?xml version="1.0" standalone="no"?>
<!DOCTYPE svg PUBLIC "-//W3C//DTD SVG 20010904//EN"
 "http://www.w3.org/TR/2001/REC-SVG-20010904/DTD/svg10.dtd">
<svg version="1.0" xmlns="http://www.w3.org/2000/svg"
 width="700.000000pt" height="700.000000pt" viewBox="0 0 700.000000 700.000000"
 preserveAspectRatio="xMidYMid meet">
<metadata>
Created by potrace 1.11, written by Peter Selinger 2001-2013
</metadata>
<g transform="translate(0.000000,700.000000) scale(0.100000,-0.100000)"
fill="#000000" stroke="none">
<path d="M695 6993 c-316 -44 -581 -282 -672 -603 -17 -62 -18 -178 -18 -2890
0 -2712 1 -2828 18 -2890 83 -291 296 -504 587 -587 62 -17 178 -18 2890 -18
2712 0 2828 1 2890 18 291 83 504 296 587 587 17 62 18 178 18 2890 0 2712 -1
2828 -18 2890 -82 289 -289 497 -582 586 -57 18 -182 19 -2865 20 -1543 1
-2818 -1 -2835 -3z m3100 -1238 c261 -37 489 -119 685 -247 110 -71 147 -101
249 -201 243 -239 394 -536 467 -918 8 -45 13 -83 10 -86 -5 -6 -783 -133
-812 -133 -18 0 -23 10 -34 63 -16 77 -69 235 -104 309 -104 219 -273 367
-492 430 -113 32 -313 32 -432 0 -171 -46 -302 -124 -429 -255 -201 -208 -320
-492 -363 -867 -14 -118 -14 -450 0 -588 64 -663 333 -1084 767 -1204 65 -18
105 -22 248 -22 147 -1 182 2 260 23 272 71 445 224 536 471 33 93 59 227 59
311 l0 59 -400 0 -400 0 0 355 0 355 800 0 800 0 0 -348 c0 -192 -5 -398 -11
-458 -43 -447 -209 -824 -480 -1094 -114 -113 -217 -189 -359 -263 -253 -132
-502 -189 -825 -189 -802 1 -1380 392 -1676 1134 -197 496 -251 1257 -128
1824 164 757 680 1327 1359 1500 208 53 497 69 705 39z"/>
</g>
</svg>
