<?xml version="1.0" standalone="no"?>
<!DOCTYPE svg PUBLIC "-//W3C//DTD SVG 20010904//EN"
 "http://www.w3.org/TR/2001/REC-SVG-20010904/DTD/svg10.dtd">
<svg version="1.0" xmlns="http://www.w3.org/2000/svg"
 width="700.000000pt" height="700.000000pt" viewBox="0 0 700.000000 700.000000"
 preserveAspectRatio="xMidYMid meet">
<metadata>
Created by potrace 1.11, written by Peter Selinger 2001-2013
</metadata>
<g transform="translate(0.000000,700.000000) scale(0.100000,-0.100000)"
fill="#000000" stroke="none">
<path d="M852 6985 c-330 -60 -595 -256 -742 -549 -28 -55 -63 -146 -78 -201
l-27 -100 0 -2635 0 -2635 27 -100 c98 -358 375 -635 733 -733 l100 -27 2635
0 2635 0 100 27 c358 98 635 375 733 733 l27 100 0 2635 0 2635 -27 100 c-98
358 -375 635 -733 733 l-100 27 -2605 2 c-2123 1 -2618 -1 -2678 -12z m3368
-1460 c281 -33 571 -104 805 -198 l130 -52 3 -382 c1 -211 -1 -383 -4 -383 -4
0 -35 15 -68 34 -222 124 -528 231 -801 281 -119 22 -474 32 -587 16 -539 -77
-861 -398 -944 -942 -21 -138 -21 -419 0 -560 40 -263 131 -465 282 -628 218
-236 569 -347 991 -313 136 11 266 35 336 61 l27 11 0 360 0 360 -295 0 -295
0 0 320 0 320 745 0 745 0 0 -894 0 -893 -116 -52 c-288 -129 -633 -223 -979
-267 -199 -26 -671 -27 -835 -1 -482 75 -832 245 -1121 545 -223 230 -373 519
-443 849 -36 170 -47 293 -47 510 0 228 19 394 66 578 78 304 207 541 415 758
326 342 758 529 1331 577 144 12 496 4 659 -15z"/>
</g>
</svg>
